<svg height="1024" node-id="1" sillyvg="true" template-height="1024" template-width="1024" version="1.1" viewBox="0 0 1024 1024" width="1024" xmlns="http://www.w3.org/2000/svg" xmlns:xlink="http://www.w3.org/1999/xlink"><defs node-id="316"><clipPath id="master_svg0_41_4881" node-id="3"><path d="M 0.00 0.00 L 1024.00 0.00 L 1024.00 1024.00 L 0.00 1024.00 Z" fill="#000000" fill-rule="nonzero" node-id="319" stroke="none" target-height="1024" target-width="1024" target-x="0" target-y="0"/></clipPath></defs><g node-id="1096"><g clip-path="url(#master_svg0_41_4881)" group-id="1" id="sillyvg_g_1" node-id="325"><path d="M 483.43 888.42 L 483.41 898.85 C 483.40 901.72 481.50 904.59 477.72 906.79 L 477.74 896.36 C 481.53 894.16 483.42 891.29 483.43 888.42 Z M 411.40 898.73 L 411.42 888.30 C 411.42 891.21 413.33 894.13 417.20 896.36 L 417.18 906.79 C 413.31 904.55 411.39 901.63 411.40 898.73 Z" fill="#613941" fill-rule="nonzero" group-id="1,2" node-id="329" stroke="none" target-height="18.488037" target-width="72.04306" target-x="411.38733" target-y="888.30096"/><path d="M 477.74 896.36 L 477.72 906.79 L 461.25 916.36 L 461.27 905.93 L 477.74 896.36 Z M 433.72 905.89 L 433.70 916.32 L 417.18 906.79 L 417.20 896.36 L 433.72 905.89 Z" fill="#613941" fill-rule="nonzero" group-id="1,3" node-id="334" stroke="none" target-height="19.995972" target-width="60.56491" target-x="417.1776" target-y="896.36255"/><path d="M 461.27 905.93 L 461.25 916.36 C 453.69 920.75 441.37 920.75 433.70 916.33 L 433.72 905.90 C 441.39 910.33 453.72 910.33 461.27 905.93 L 461.27 905.93 Z" fill="#613941" fill-rule="nonzero" group-id="1,4" node-id="339" stroke="none" target-height="14.8480835" target-width="27.573456" target-x="433.7012" target-y="905.90454"/><path d="M 477.65 880.36 C 485.32 884.79 485.37 891.93 477.74 896.36 L 461.27 905.93 C 453.72 910.33 441.39 910.33 433.72 905.89 L 417.20 896.36 C 409.53 891.93 409.49 884.79 417.05 880.40 L 433.52 870.83 C 441.14 866.40 453.46 866.40 461.14 870.83 L 477.65 880.36 Z" fill="#804f59" fill-rule="nonzero" group-id="1,5" node-id="344" stroke="none" target-height="43.92981" target-width="75.87836" target-x="409.48825" target-y="866.3963"/><path d="M 824.38 688.66 L 824.36 699.08 C 824.36 701.97 822.46 704.83 818.68 707.03 L 818.69 696.61 C 822.48 694.40 824.37 691.53 824.38 688.66 Z M 752.34 698.96 L 752.36 688.54 C 752.36 691.45 754.28 694.36 758.15 696.60 L 758.12 707.03 C 754.26 704.79 752.33 701.88 752.34 698.96 Z M 818.69 696.60 L 818.67 707.03 L 802.19 716.61 L 802.22 706.18 L 818.69 696.60 Z M 774.67 706.14 L 774.65 716.57 L 758.12 707.03 L 758.15 696.61 L 774.67 706.14 Z" fill="#613941" fill-rule="nonzero" group-id="1,6" node-id="349" stroke="none" target-height="28.076172" target-width="72.04303" target-x="752.3328" target-y="688.53735"/><path d="M 802.22 706.18 L 802.19 716.60 C 794.64 721.00 782.32 721.00 774.65 716.57 L 774.67 706.14 C 782.34 710.56 794.66 710.56 802.22 706.18 Z" fill="#613941" fill-rule="nonzero" group-id="1,7" node-id="354" stroke="none" target-height="14.857361" target-width="27.573486" target-x="774.6467" target-y="706.14087"/><path d="M 818.60 680.61 C 826.27 685.04 826.31 692.18 818.70 696.60 L 802.22 706.18 C 794.66 710.56 782.34 710.56 774.67 706.14 L 758.15 696.60 C 750.48 692.18 750.44 685.04 757.99 680.64 L 774.47 671.07 C 782.09 666.64 794.41 666.64 802.08 671.07 L 818.60 680.61 Z" fill="#804f59" fill-rule="nonzero" group-id="1,8" node-id="359" stroke="none" target-height="43.92041" target-width="75.86914" target-x="750.44305" target-y="666.6424"/><path d="M 431.14 593.87 L 431.26 886.84 C 431.26 889.23 432.84 891.61 435.97 893.43 C 442.28 897.10 452.54 897.10 458.90 893.43 C 462.09 891.59 463.70 889.17 463.69 886.75 L 463.56 593.78 C 463.56 596.20 461.98 598.62 458.78 600.46 C 452.43 604.13 442.16 604.13 435.85 600.46 C 432.71 598.65 431.14 596.27 431.14 593.87 Z M 772.09 395.74 L 772.21 688.70 C 772.21 691.09 773.79 693.47 776.92 695.30 C 783.23 698.96 793.49 698.96 799.85 695.30 C 803.05 693.45 804.64 691.02 804.63 688.61 L 804.51 395.64 C 804.52 398.06 802.93 400.48 799.73 402.32 C 789.76 408.07 772.11 404.18 772.09 395.73 L 772.09 395.74 Z" fill="#bbcfef" fill-rule="nonzero" group-id="1,9" node-id="364" stroke="none" target-height="501.462" target-width="373.49902" target-x="431.14124" target-y="395.63596"/><path d="M 232.39 743.27 L 232.37 753.70 C 232.36 756.59 230.47 759.44 226.69 761.65 L 226.70 751.22 C 230.48 749.02 232.38 746.15 232.38 743.27 L 232.39 743.27 Z M 160.35 753.58 L 160.38 743.15 C 160.37 746.07 162.29 748.98 166.16 751.22 L 166.14 761.64 C 162.27 759.41 160.34 756.49 160.35 753.58 Z M 226.70 751.22 L 226.69 761.64 L 210.21 771.23 L 210.23 760.79 L 226.70 751.22 Z M 182.68 760.76 L 182.66 771.18 L 166.14 761.65 L 166.16 751.22 L 182.68 760.76 Z" fill="#613941" fill-rule="nonzero" group-id="1,10" node-id="369" stroke="none" target-height="28.076294" target-width="72.05238" target-x="160.33972" target-y="743.15356"/><path d="M 210.23 760.79 L 210.21 771.22 C 202.65 775.61 190.32 775.61 182.65 771.18 L 182.68 760.76 C 190.35 765.19 202.67 765.19 210.24 760.79 L 210.23 760.79 Z" fill="#613941" fill-rule="nonzero" group-id="1,11" node-id="374" stroke="none" target-height="14.857422" target-width="27.582794" target-x="182.65369" target-y="760.757"/><path d="M 226.61 735.23 C 234.28 739.65 234.32 746.79 226.70 751.22 L 210.23 760.79 C 202.67 765.19 190.35 765.19 182.68 760.76 L 166.16 751.22 C 158.49 746.79 158.45 739.65 166.01 735.26 L 182.49 725.69 C 190.10 721.26 202.43 721.26 210.09 725.69 L 226.61 735.23 Z" fill="#804f59" fill-rule="nonzero" group-id="1,12" node-id="379" stroke="none" target-height="43.92975" target-width="75.869125" target-x="158.45007" target-y="721.2586"/><path d="M 501.32 543.40 C 501.32 543.40 501.32 543.40 501.32 543.41 L 501.32 543.40 Z M 551.15 571.47 L 567.63 561.89 C 571.41 559.69 573.31 556.82 573.32 553.95 L 573.35 543.52 L 573.34 543.52 C 573.33 546.40 571.44 549.26 567.65 551.46 L 551.17 561.04 L 551.15 571.47 Z M 501.29 553.83 L 501.30 553.83 C 501.29 556.74 503.22 559.65 507.08 561.89 L 523.61 571.43 L 523.64 561.00 L 507.10 551.46 C 503.24 549.23 501.32 546.31 501.32 543.41 L 501.29 553.83 Z" fill="#613941" fill-rule="nonzero" group-id="1,13" node-id="384" stroke="none" target-height="28.066956" target-width="72.0524" target-x="501.2946" target-y="543.39966"/><path d="M 551.17 561.03 L 551.15 571.46 C 543.60 575.86 531.28 575.86 523.60 571.43 L 523.63 561.00 C 531.30 565.42 543.62 565.42 551.18 561.03 L 551.17 561.03 Z" fill="#613941" fill-rule="nonzero" group-id="1,14" node-id="389" stroke="none" target-height="14.857361" target-width="27.582886" target-x="523.5991" target-y="561.0032"/><path d="M 567.57 535.47 C 575.23 539.90 575.26 547.03 567.66 551.46 L 551.18 561.03 C 543.62 565.42 531.30 565.42 523.63 561.00 L 507.10 551.46 C 499.44 547.03 499.40 539.90 506.95 535.50 L 523.43 525.93 C 531.05 521.50 543.37 521.50 551.04 525.93 L 567.57 535.47 Z" fill="#804f59" fill-rule="nonzero" group-id="1,15" node-id="394" stroke="none" target-height="43.92041" target-width="75.86908" target-x="499.39545" target-y="521.5041"/><path d="M 180.09 448.74 L 180.21 741.69 C 180.22 744.08 181.80 746.47 184.93 748.29 C 191.25 751.96 201.50 751.96 207.86 748.29 C 211.06 746.45 212.66 744.02 212.65 741.61 L 212.53 448.64 C 212.53 451.06 210.93 453.48 207.73 455.33 C 197.77 461.08 180.12 457.19 180.09 448.74 Z M 521.05 250.60 L 521.17 543.56 C 521.17 545.95 522.74 548.33 525.87 550.16 C 535.74 555.89 553.61 552.02 553.59 543.46 L 553.47 250.51 C 553.47 252.93 551.89 255.35 548.69 257.19 C 542.33 260.86 532.07 260.86 525.75 257.19 C 522.62 255.37 521.05 252.98 521.05 250.60 Z" fill="#bbcfef" fill-rule="nonzero" group-id="1,16" node-id="399" stroke="none" target-height="501.45288" target-width="373.518" target-x="180.09363" target-y="250.50706"/><path d="M 935.93 400.07 L 467.21 672.45 C 481.32 664.26 490.06 646.84 490.12 622.09 L 958.84 349.70 C 958.76 374.44 950.02 391.87 935.93 400.06 L 935.93 400.07 Z" fill="#dbe6fa" fill-rule="nonzero" group-id="1,17" node-id="404" stroke="none" target-height="322.75604" target-width="491.62198" target-x="467.21402" target-y="349.6955"/><path d="M 332.92 531.32 L 801.63 258.93 L 958.84 349.70 L 490.12 622.08 L 332.92 531.32 Z" fill="#ebf2ff" fill-rule="nonzero" group-id="1,18" node-id="409" stroke="none" target-height="363.14798" target-width="625.915" target-x="332.92102" target-y="258.93185"/><path d="M 490.12 622.08 C 489.98 671.95 454.66 692.03 411.23 666.95 C 367.80 641.87 332.78 581.19 332.92 531.32 L 490.12 622.08 Z" fill="#cbdbf4" fill-rule="nonzero" group-id="1,19" node-id="414" stroke="none" target-height="160.71198" target-width="157.34222" target-x="332.78134" target-y="531.31665"/><path d="M 668.17 245.48 L 199.46 517.86 C 213.56 509.67 222.30 492.25 222.37 467.50 L 691.08 195.12 C 691.01 219.86 682.27 237.29 668.17 245.48 Z" fill="#dbe6fa" fill-rule="nonzero" group-id="1,20" node-id="419" stroke="none" target-height="322.74597" target-width="491.62195" target-x="199.45654" target-y="195.1184"/><path d="M 65.16 376.74 L 533.88 104.35 L 691.08 195.12 L 222.37 467.50 L 65.16 376.74 Z" fill="#ebf2ff" fill-rule="nonzero" group-id="1,21" node-id="424" stroke="none" target-height="363.14804" target-width="625.9149" target-x="65.163574" target-y="104.354706"/><path d="M 222.37 467.50 C 222.23 517.36 186.90 537.44 143.47 512.37 C 100.04 487.29 65.02 426.60 65.16 376.74 L 222.37 467.50 Z" fill="#cbdbf4" fill-rule="nonzero" group-id="1,22" node-id="429" stroke="none" target-height="160.70297" target-width="157.34222" target-x="65.023994" target-y="376.7385"/><path d="M 223.41 418.38 L 308.89 368.70 L 222.85 319.03 L 137.37 368.70 L 223.41 418.38 Z" fill="#804f59" fill-rule="nonzero" group-id="1,23" node-id="434" stroke="none" target-height="99.34659" target-width="171.51099" target-x="137.37427" target-y="319.03146"/><path d="M 308.88 368.70 L 308.87 375.91 L 222.83 326.24 L 222.85 319.03 L 308.88 368.70 Z" fill="#bbcfef" fill-rule="nonzero" group-id="1,24" node-id="439" stroke="none" target-height="56.87854" target-width="86.043915" target-x="222.83179" target-y="319.03146"/><path d="M 222.85 319.03 L 222.83 326.24 L 137.36 375.91 L 137.37 368.70 L 222.85 319.03 Z" fill="#dbe6fa" fill-rule="nonzero" group-id="1,25" node-id="444" stroke="none" target-height="56.87854" target-width="85.494705" target-x="137.35559" target-y="319.03146"/><path d="M 223.44 423.82 L 223.42 431.03 L 127.95 375.92 L 127.97 368.71 L 223.44 423.82 Z" fill="#bbcfef" fill-rule="nonzero" group-id="1,26" node-id="449" stroke="none" target-height="62.3244" target-width="95.48331" target-x="127.95349" target-y="368.7053"/><path d="M 318.25 368.72 L 318.23 375.93 L 223.42 431.03 L 223.44 423.82 L 318.25 368.72 Z" fill="#dbe6fa" fill-rule="nonzero" group-id="1,27" node-id="454" stroke="none" target-height="62.305756" target-width="94.83171" target-x="223.4182" target-y="368.72385"/><path d="M 222.79 313.60 L 318.25 368.71 L 223.44 423.82 L 127.97 368.71 L 222.79 313.60 Z M 223.42 418.38 L 308.89 368.71 L 222.86 319.03 L 137.38 368.71 L 223.42 418.38 Z" fill="#ffffff" fill-rule="nonzero" group-id="1,28" node-id="459" stroke="none" target-height="110.22" target-width="190.27802" target-x="127.972046" target-y="313.6047"/><path d="M 378.27 328.38 L 463.75 278.70 L 377.72 229.03 L 292.24 278.70 L 378.27 328.38 Z" fill="#804f59" fill-rule="nonzero" group-id="1,29" node-id="464" stroke="none" target-height="99.34659" target-width="171.51099" target-x="292.24023" target-y="229.03146"/><path d="M 463.75 278.70 L 463.73 285.91 L 377.70 236.24 L 377.72 229.03 L 463.75 278.70 Z" fill="#bbcfef" fill-rule="nonzero" group-id="1,30" node-id="469" stroke="none" target-height="56.87851" target-width="86.05319" target-x="377.69778" target-y="229.03146"/><path d="M 377.72 229.03 L 377.70 236.24 L 292.22 285.91 L 292.24 278.70 L 377.72 229.03 Z" fill="#dbe6fa" fill-rule="nonzero" group-id="1,31" node-id="474" stroke="none" target-height="56.87851" target-width="85.49469" target-x="292.22168" target-y="229.03146"/><path d="M 378.30 333.82 L 378.28 341.03 L 282.82 285.92 L 282.84 278.70 L 378.30 333.82 Z" fill="#bbcfef" fill-rule="nonzero" group-id="1,32" node-id="479" stroke="none" target-height="62.32431" target-width="95.48331" target-x="282.81946" target-y="278.7043"/><path d="M 473.12 278.71 L 473.10 285.93 L 378.28 341.04 L 378.30 333.82 L 473.12 278.71 Z" fill="#dbe6fa" fill-rule="nonzero" group-id="1,33" node-id="484" stroke="none" target-height="62.32431" target-width="94.831696" target-x="378.2842" target-y="278.71408"/><path d="M 377.65 223.60 L 473.12 278.71 L 378.30 333.82 L 282.84 278.71 L 377.65 223.60 Z M 378.27 328.38 L 463.75 278.70 L 377.72 229.03 L 292.24 278.70 L 378.27 328.38 Z" fill="#ffffff" fill-rule="nonzero" group-id="1,34" node-id="489" stroke="none" target-height="110.22" target-width="190.27802" target-x="282.83813" target-y="223.60373"/><path d="M 533.45 245.58 L 618.92 195.91 L 532.89 146.24 L 447.41 195.91 L 533.45 245.58 Z" fill="#804f59" fill-rule="nonzero" group-id="1,35" node-id="494" stroke="none" target-height="99.34662" target-width="171.51099" target-x="447.41357" target-y="146.23654"/><path d="M 618.92 195.91 L 618.91 203.12 L 532.87 153.45 L 532.89 146.24 L 618.92 195.91 Z" fill="#bbcfef" fill-rule="nonzero" group-id="1,36" node-id="499" stroke="none" target-height="56.887802" target-width="86.05322" target-x="532.871" target-y="146.23654"/><path d="M 532.89 146.25 L 532.87 153.45 L 447.39 203.12 L 447.41 195.91 L 532.89 146.25 Z" fill="#dbe6fa" fill-rule="nonzero" group-id="1,37" node-id="504" stroke="none" target-height="56.87851" target-width="85.49469" target-x="447.3949" target-y="146.24533"/><path d="M 533.48 251.03 L 533.46 258.23 L 437.99 203.12 L 438.01 195.91 L 533.48 251.03 Z" fill="#bbcfef" fill-rule="nonzero" group-id="1,38" node-id="509" stroke="none" target-height="62.32431" target-width="95.483246" target-x="437.9927" target-y="195.9094"/><path d="M 628.29 195.93 L 628.27 203.13 L 533.46 258.24 L 533.48 251.03 L 628.29 195.93 Z" fill="#dbe6fa" fill-rule="nonzero" group-id="1,39" node-id="514" stroke="none" target-height="62.315002" target-width="94.831726" target-x="533.4575" target-y="195.92795"/><path d="M 532.83 140.82 L 628.29 195.93 L 533.48 251.04 L 438.01 195.91 L 532.83 140.82 Z M 533.45 245.58 L 618.92 195.91 L 532.89 146.24 L 447.41 195.91 L 533.45 245.58 Z" fill="#ffffff" fill-rule="nonzero" group-id="1,40" node-id="519" stroke="none" target-height="110.22" target-width="190.27798" target-x="438.01138" target-y="140.81857"/><path d="M 491.17 572.97 L 576.63 523.29 L 490.60 473.62 L 405.12 523.29 L 491.17 572.97 Z" fill="#804f59" fill-rule="nonzero" group-id="1,41" node-id="524" stroke="none" target-height="99.35593" target-width="171.51096" target-x="405.12234" target-y="473.61838"/><path d="M 576.63 523.29 L 576.61 530.50 L 490.58 480.82 L 490.60 473.62 L 576.63 523.29 Z" fill="#bbcfef" fill-rule="nonzero" group-id="1,42" node-id="529" stroke="none" target-height="56.87851" target-width="86.05322" target-x="490.57983" target-y="473.61838"/><path d="M 490.60 473.62 L 490.58 480.82 L 405.10 530.50 L 405.12 523.29 L 490.60 473.62 Z" fill="#dbe6fa" fill-rule="nonzero" group-id="1,43" node-id="534" stroke="none" target-height="56.87851" target-width="85.49466" target-x="405.1038" target-y="473.61838"/><path d="M 491.19 578.41 L 491.18 585.62 L 395.71 530.51 L 395.73 523.29 L 491.19 578.41 Z" fill="#bbcfef" fill-rule="nonzero" group-id="1,44" node-id="539" stroke="none" target-height="62.32428" target-width="95.48328" target-x="395.71085" target-y="523.29224"/><path d="M 586.01 523.31 L 585.99 530.52 L 491.18 585.63 L 491.19 578.41 L 586.01 523.31 Z" fill="#dbe6fa" fill-rule="nonzero" group-id="1,45" node-id="544" stroke="none" target-height="62.31494" target-width="94.831726" target-x="491.17554" target-y="523.3108"/><path d="M 490.54 468.19 L 586.01 523.30 L 491.19 578.41 L 395.73 523.30 L 490.54 468.19 Z M 491.17 572.97 L 576.63 523.29 L 490.60 473.62 L 405.12 523.29 L 491.17 572.97 Z" fill="#ffffff" fill-rule="nonzero" group-id="1,46" node-id="549" stroke="none" target-height="110.22003" target-width="190.27798" target-x="395.72952" target-y="468.1916"/><path d="M 646.02 482.96 L 731.50 433.29 L 645.46 383.62 L 559.99 433.29 L 646.02 482.96 Z" fill="#804f59" fill-rule="nonzero" group-id="1,47" node-id="554" stroke="none" target-height="99.34659" target-width="171.51099" target-x="559.9884" target-y="383.61838"/><path d="M 731.51 433.29 L 731.48 440.50 L 645.45 390.83 L 645.46 383.62 L 731.51 433.29 Z" fill="#bbcfef" fill-rule="nonzero" group-id="1,48" node-id="559" stroke="none" target-height="56.87854" target-width="86.06262" target-x="645.4458" target-y="383.61838"/><path d="M 645.46 383.63 L 645.45 390.83 L 559.97 440.51 L 559.99 433.29 L 645.46 383.63 Z" fill="#dbe6fa" fill-rule="nonzero" group-id="1,49" node-id="564" stroke="none" target-height="56.87848" target-width="85.49469" target-x="559.9697" target-y="383.6272"/><path d="M 646.05 488.41 L 646.03 495.62 L 550.58 440.51 L 550.60 433.29 L 646.05 488.41 Z" fill="#bbcfef" fill-rule="nonzero" group-id="1,50" node-id="569" stroke="none" target-height="62.3244" target-width="95.47412" target-x="550.5769" target-y="433.29123"/><path d="M 740.87 433.31 L 740.85 440.51 L 646.03 495.62 L 646.06 488.41 L 740.87 433.31 Z" fill="#dbe6fa" fill-rule="nonzero" group-id="1,51" node-id="574" stroke="none" target-height="62.315094" target-width="94.841" target-x="646.0322" target-y="433.30978"/><path d="M 645.41 378.19 L 740.87 433.31 L 646.05 488.41 L 550.59 433.30 L 645.41 378.19 Z M 646.02 482.96 L 731.50 433.29 L 645.46 383.62 L 559.99 433.29 L 646.02 482.96 Z" fill="#ffffff" fill-rule="nonzero" group-id="1,52" node-id="579" stroke="none" target-height="110.22" target-width="190.28699" target-x="550.5862" target-y="378.19064"/><path d="M 801.21 400.17 L 886.68 350.50 L 800.65 300.83 L 715.17 350.51 L 801.21 400.17 Z" fill="#804f59" fill-rule="nonzero" group-id="1,53" node-id="584" stroke="none" target-height="99.33734" target-width="171.51086" target-x="715.17096" target-y="300.83224"/><path d="M 886.68 350.50 L 886.65 357.71 L 800.62 308.04 L 800.65 300.83 L 886.68 350.50 Z" fill="#bbcfef" fill-rule="nonzero" group-id="1,54" node-id="589" stroke="none" target-height="56.87851" target-width="86.06262" target-x="800.61914" target-y="300.83224"/><path d="M 800.65 300.83 L 800.62 308.04 L 715.14 357.71 L 715.17 350.51 L 800.65 300.83 Z" fill="#dbe6fa" fill-rule="nonzero" group-id="1,55" node-id="594" stroke="none" target-height="56.87851" target-width="85.50403" target-x="715.14307" target-y="300.83224"/><path d="M 801.23 405.62 L 801.21 412.83 L 705.75 357.71 L 705.77 350.51 L 801.23 405.62 Z" fill="#bbcfef" fill-rule="nonzero" group-id="1,56" node-id="599" stroke="none" target-height="62.3244" target-width="95.48328" target-x="705.75" target-y="350.50607"/><path d="M 896.05 350.51 L 896.03 357.73 L 801.21 412.83 L 801.23 405.62 L 896.05 350.51 Z" fill="#dbe6fa" fill-rule="nonzero" group-id="1,57" node-id="604" stroke="none" target-height="62.315094" target-width="94.831665" target-x="801.21484" target-y="350.51486"/><path d="M 800.58 295.41 L 896.05 350.52 L 801.23 405.63 L 705.77 350.51 L 800.58 295.41 Z M 801.21 400.17 L 886.68 350.50 L 800.65 300.83 L 715.17 350.51 L 801.21 400.17 Z" fill="#ffffff" fill-rule="nonzero" group-id="1,58" node-id="609" stroke="none" target-height="110.22" target-width="190.27795" target-x="705.7688" target-y="295.4055"/><path d="M 315.86 648.03 L 120.81 535.44 C 98.01 522.29 98.01 489.43 120.74 476.23 L 144.94 462.16 C 148.28 460.21 152.56 461.34 154.50 464.68 C 156.44 468.02 155.30 472.30 151.96 474.23 L 127.76 488.30 C 114.29 496.13 114.32 515.57 127.80 523.35 L 322.84 635.95 C 337.58 644.43 355.72 644.40 370.44 635.89 L 408.02 614.04 C 411.35 612.09 415.64 613.22 417.58 616.56 C 419.52 619.90 418.38 624.18 415.04 626.11 L 377.46 647.96 C 358.41 658.98 334.93 659.01 315.86 648.03 Z" fill="#6e444d" fill-rule="nonzero" group-id="1,59" node-id="614" stroke="none" target-height="198.79645" target-width="321.51352" target-x="98.00611" target-y="460.21185"/><path d="M 287.09 636.82 L 144.92 554.73 C 139.57 551.42 137.82 544.46 140.97 539.01 C 144.11 533.56 151.02 531.59 156.56 534.57 L 298.75 616.65 C 304.10 619.96 305.85 626.93 302.71 632.38 C 299.56 637.83 292.66 639.79 287.11 636.82 L 287.09 636.82 Z M 483.48 541.45 L 495.82 541.45 C 495.73 530.77 495.67 520.09 495.64 509.41 C 495.61 503.29 493.43 496.96 493.79 492.26 L 485.67 492.34 C 485.60 494.29 484.50 495.78 484.61 497.80 C 485.02 504.13 484.43 522.03 483.48 541.46 L 483.48 541.45 Z" fill="#ffb63c" fill-rule="nonzero" group-id="1,60" node-id="619" stroke="none" target-height="147.52701" target-width="358.0003" target-x="137.82083" target-y="492.26486"/><path d="M 489.27 494.38 C 507.19 473.96 507.07 454.13 488.90 434.88 C 474.10 452.48 474.23 472.31 489.28 494.38 L 489.27 494.38 Z" fill="#39c988" fill-rule="nonzero" group-id="1,61" node-id="624" stroke="none" target-height="59.494415" target-width="33.087585" target-x="474.10272" target-y="434.883"/><path d="M 489.22 442.46 C 489.65 456.56 489.56 474.76 489.28 494.38 C 492.04 465.10 492.02 447.80 489.22 442.46 Z" fill="#47a55d" fill-rule="nonzero" group-id="1,62" node-id="629" stroke="none" target-height="51.91678" target-width="2.8175354" target-x="489.2207" target-y="442.46115"/><path d="M 442.00 457.40 C 450.01 458.80 455.00 462.75 456.98 469.25 C 459.94 479.01 482.40 494.00 489.91 496.27 C 495.26 482.79 490.09 470.71 474.41 460.02 C 458.72 449.33 447.91 448.45 441.99 457.40 L 442.00 457.40 Z" fill="#49e4a3" fill-rule="nonzero" group-id="1,63" node-id="634" stroke="none" target-height="47.814606" target-width="53.272797" target-x="441.98633" target-y="448.45316"/><path d="M 449.29 456.61 C 462.35 463.49 474.32 475.61 485.43 491.85 C 476.84 470.45 464.79 458.71 449.29 456.61 Z" fill="#28af6e" fill-rule="nonzero" group-id="1,64" node-id="639" stroke="none" target-height="35.234894" target-width="36.13794" target-x="449.2939" target-y="456.61057"/><path d="M 490.08 499.48 C 456.02 487.79 434.28 488.57 424.87 501.81 C 427.54 478.81 439.92 468.00 461.99 469.40 C 484.07 470.79 493.43 480.82 490.08 499.48 Z" fill="#39c988" fill-rule="nonzero" group-id="1,65" node-id="644" stroke="none" target-height="33.80127" target-width="68.56146" target-x="424.86694" target-y="468.005"/><path d="M 428.43 494.38 C 448.56 479.80 468.73 481.63 488.92 493.88 C 468.80 474.43 448.63 474.60 428.43 494.38 Z" fill="#28af6e" fill-rule="nonzero" group-id="1,66" node-id="649" stroke="none" target-height="19.946259" target-width="60.49051" target-x="428.43225" target-y="474.43173"/><path d="M 491.23 497.47 C 491.08 503.86 486.89 509.34 478.66 513.91 C 466.33 520.76 451.71 531.73 451.71 539.95 C 444.56 512.08 448.90 495.63 464.74 490.61 C 480.57 485.59 489.40 487.87 491.23 497.47 Z" fill="#49e4a3" fill-rule="nonzero" group-id="1,67" node-id="654" stroke="none" target-height="54.358948" target-width="46.672638" target-x="444.5587" target-y="485.5871"/><path d="M 453.46 525.34 C 463.45 510.21 475.55 499.80 491.23 497.48 C 468.72 498.56 456.12 507.85 453.46 525.34 Z" fill="#39c988" fill-rule="nonzero" group-id="1,68" node-id="659" stroke="none" target-height="27.862091" target-width="37.776276" target-x="453.4551" target-y="497.47775"/><path d="M 538.26 457.73 C 530.24 459.12 525.25 463.08 523.27 469.59 C 520.31 479.34 497.85 494.33 490.35 496.60 C 484.99 483.12 490.16 471.04 505.85 460.34 C 521.53 449.66 532.33 448.79 538.26 457.74 L 538.26 457.73 Z" fill="#49e4a3" fill-rule="nonzero" group-id="1,69" node-id="664" stroke="none" target-height="47.814545" target-width="53.269653" target-x="484.9912" target-y="448.7881"/><path d="M 530.96 456.94 C 517.90 463.83 505.94 475.95 494.82 492.18 C 503.41 470.79 515.46 459.04 530.96 456.94 Z" fill="#28af6e" fill-rule="nonzero" group-id="1,70" node-id="669" stroke="none" target-height="35.2442" target-width="36.13788" target-x="494.8247" target-y="456.93674"/><path d="M 555.38 502.15 C 552.71 479.15 540.34 468.34 518.26 469.73 C 496.18 471.12 486.82 481.15 490.18 499.81 C 524.23 488.12 545.97 488.90 555.38 502.15 Z" fill="#39c988" fill-rule="nonzero" group-id="1,71" node-id="674" stroke="none" target-height="33.81372" target-width="68.55835" target-x="486.82202" target-y="468.33728"/><path d="M 551.82 494.71 C 531.69 480.13 511.53 481.97 491.33 494.20 C 511.46 474.76 531.62 474.93 551.82 494.71 Z" fill="#28af6e" fill-rule="nonzero" group-id="1,72" node-id="679" stroke="none" target-height="19.94934" target-width="60.48117" target-x="491.3339" target-y="474.763"/><path d="M 489.03 497.79 C 489.17 504.19 493.36 509.67 501.59 514.24 C 513.94 521.10 528.53 532.05 528.53 540.27 C 535.69 512.41 531.35 495.96 515.52 490.94 C 499.68 485.92 490.85 488.20 489.03 497.79 Z" fill="#49e4a3" fill-rule="nonzero" group-id="1,73" node-id="684" stroke="none" target-height="54.355804" target-width="46.66342" target-x="489.02512" target-y="485.9153"/><path d="M 526.80 525.67 C 516.79 510.55 504.71 500.13 489.03 497.80 C 511.54 498.90 524.13 508.18 526.79 525.67 L 526.80 525.67 Z" fill="#39c988" fill-rule="nonzero" group-id="1,74" node-id="689" stroke="none" target-height="27.862091" target-width="37.776337" target-x="489.02512" target-y="497.80295"/><path d="M 481.40 533.90 C 482.27 533.77 483.23 534.08 483.72 534.81 C 484.00 535.24 484.15 535.81 484.60 536.05 C 486.20 536.87 487.06 532.74 488.65 533.72 C 489.01 533.93 489.49 534.40 489.71 534.03 C 491.59 534.94 494.01 534.59 495.57 533.20 C 496.41 532.45 496.54 532.22 497.67 532.32 C 501.70 532.67 503.91 533.50 505.07 537.04 C 505.34 537.70 505.43 538.41 505.33 539.12 C 504.93 541.17 500.18 545.71 497.03 547.55 C 488.76 552.39 483.46 548.78 477.95 549.01 C 474.31 549.16 473.20 549.43 471.19 545.48 C 469.85 542.84 475.04 545.02 475.40 542.27 C 475.56 541.01 474.56 540.38 475.55 539.23 C 476.26 538.39 477.22 537.95 477.86 537.00 C 478.76 535.65 479.63 534.16 481.40 533.90 Z" fill="#804f59" fill-rule="nonzero" group-id="1,75" node-id="694" stroke="none" target-height="20.17279" target-width="35.577606" target-x="469.8485" target-y="532.21954"/><path d="M 639.41 454.58 L 651.76 454.58 C 651.66 443.90 651.60 433.21 651.57 422.53 C 651.54 416.40 649.36 410.07 649.73 405.38 L 641.61 405.46 C 641.54 407.41 640.44 408.90 640.54 410.92 C 640.95 417.25 640.35 435.14 639.41 454.58 Z" fill="#ffb63c" fill-rule="nonzero" group-id="1,76" node-id="699" stroke="none" target-height="49.198425" target-width="12.343872" target-x="639.4136" target-y="405.38306"/><path d="M 645.20 407.50 C 663.12 387.08 663.00 367.25 644.83 348.00 C 630.03 365.60 630.15 385.43 645.20 407.50 Z" fill="#39c988" fill-rule="nonzero" group-id="1,77" node-id="704" stroke="none" target-height="59.494354" target-width="33.09076" target-x="630.0299" target-y="348.0012"/><path d="M 645.16 355.58 C 645.58 369.68 645.48 387.89 645.21 407.50 C 647.97 378.22 647.95 360.92 645.16 355.58 Z" fill="#47a55d" fill-rule="nonzero" group-id="1,78" node-id="709" stroke="none" target-height="51.91678" target-width="2.8113403" target-x="645.1572" target-y="355.57935"/><path d="M 597.92 370.52 C 605.94 371.92 610.94 375.87 612.91 382.37 C 615.87 392.14 638.33 407.12 645.84 409.39 C 651.19 395.91 646.03 383.82 630.34 373.14 C 614.65 362.44 603.85 361.57 597.92 370.53 L 597.92 370.52 Z" fill="#49e4a3" fill-rule="nonzero" group-id="1,79" node-id="714" stroke="none" target-height="47.811462" target-width="53.269653" target-x="597.92285" target-y="361.57462"/><path d="M 605.22 369.73 C 618.28 376.62 630.24 388.73 641.36 404.96 C 632.77 383.57 620.72 371.83 605.22 369.73 Z" fill="#28af6e" fill-rule="nonzero" group-id="1,80" node-id="719" stroke="none" target-height="35.234894" target-width="36.13788" target-x="605.2212" target-y="369.72873"/><path d="M 646.00 412.60 C 611.95 400.91 590.21 401.69 580.80 414.93 C 583.47 391.93 595.85 381.12 617.93 382.52 C 640.01 383.92 649.37 393.94 646.00 412.60 Z" fill="#39c988" fill-rule="nonzero" group-id="1,81" node-id="724" stroke="none" target-height="33.810608" target-width="68.564514" target-x="580.80347" target-y="381.1231"/><path d="M 584.36 407.50 C 604.50 392.93 624.67 394.76 644.85 406.99 C 624.72 387.56 604.56 387.72 584.36 407.50 Z" fill="#28af6e" fill-rule="nonzero" group-id="1,82" node-id="729" stroke="none" target-height="19.940033" target-width="60.49048" target-x="584.3596" target-y="387.5563"/><path d="M 647.17 410.59 C 647.01 416.98 642.82 422.46 634.60 427.03 C 622.27 433.88 607.65 444.84 607.65 453.06 C 600.50 425.20 604.83 408.75 620.67 403.73 C 636.50 398.71 645.33 400.99 647.16 410.59 L 647.17 410.59 Z" fill="#49e4a3" fill-rule="nonzero" group-id="1,83" node-id="734" stroke="none" target-height="54.358917" target-width="46.67267" target-x="600.49536" target-y="398.70526"/><path d="M 609.39 438.46 C 619.39 423.33 631.47 412.91 647.16 410.60 C 624.64 411.68 612.05 420.97 609.39 438.46 Z" fill="#39c988" fill-rule="nonzero" group-id="1,84" node-id="739" stroke="none" target-height="27.862122" target-width="37.76703" target-x="609.3917" target-y="410.5959"/><path d="M 694.20 370.86 C 686.18 372.25 681.18 376.20 679.21 382.71 C 676.25 392.47 653.78 407.45 646.27 409.72 C 640.92 396.24 646.09 384.16 661.77 373.47 C 677.46 362.78 688.27 361.91 694.20 370.86 Z" fill="#49e4a3" fill-rule="nonzero" group-id="1,85" node-id="744" stroke="none" target-height="47.814575" target-width="53.272705" target-x="640.9248" target-y="361.9063"/><path d="M 686.89 370.06 C 673.84 376.94 661.87 389.06 650.75 405.30 C 659.35 383.91 671.39 372.16 686.89 370.06 Z" fill="#28af6e" fill-rule="nonzero" group-id="1,86" node-id="749" stroke="none" target-height="35.234894" target-width="36.13788" target-x="650.75195" target-y="370.0637"/><path d="M 711.31 415.27 C 708.64 392.26 696.27 381.46 674.19 382.85 C 652.12 384.24 642.76 394.26 646.11 412.93 C 680.17 401.24 701.90 402.02 711.31 415.27 Z" fill="#39c988" fill-rule="nonzero" group-id="1,87" node-id="754" stroke="none" target-height="33.81369" target-width="68.552124" target-x="642.7555" target-y="381.45547"/><path d="M 707.75 407.83 C 687.62 393.25 667.45 395.09 647.26 407.32 C 667.39 387.88 687.55 388.05 707.75 407.83 Z" fill="#28af6e" fill-rule="nonzero" group-id="1,88" node-id="759" stroke="none" target-height="19.94934" target-width="60.49048" target-x="647.2611" target-y="387.88214"/><path d="M 644.95 410.91 C 645.11 417.31 649.30 422.79 657.52 427.36 C 669.84 434.21 684.46 445.17 684.46 453.40 C 691.62 425.53 687.28 409.09 671.45 404.06 C 655.61 399.03 646.78 401.32 644.95 410.91 Z" fill="#49e4a3" fill-rule="nonzero" group-id="1,89" node-id="764" stroke="none" target-height="54.365112" target-width="46.669617" target-x="644.9524" target-y="399.03445"/><path d="M 682.73 438.79 C 672.73 423.67 660.64 413.25 644.95 410.92 C 667.47 412.01 680.06 421.30 682.73 438.79 Z" fill="#39c988" fill-rule="nonzero" group-id="1,90" node-id="769" stroke="none" target-height="27.871368" target-width="37.776306" target-x="644.9524" target-y="410.92212"/><path d="M 637.34 447.02 C 638.20 446.89 639.16 447.21 639.65 447.93 C 639.93 448.35 640.08 448.93 640.54 449.16 C 642.13 450.00 642.99 445.86 644.58 446.84 C 644.94 447.05 645.42 447.52 645.64 447.15 C 647.53 448.06 649.94 447.71 651.51 446.32 C 652.34 445.57 652.47 445.34 653.61 445.44 C 657.63 445.79 659.85 446.62 661.00 450.16 C 661.58 451.91 661.37 452.65 660.31 454.01 C 655.06 460.81 648.82 463.42 643.45 463.23 C 640.23 463.12 637.09 461.99 633.87 462.13 C 630.23 462.28 629.14 462.56 627.13 458.59 C 625.79 455.96 630.97 458.15 631.33 455.39 C 631.49 454.13 630.49 453.50 631.47 452.35 C 632.20 451.51 633.15 451.07 633.80 450.11 C 634.69 448.76 635.57 447.28 637.34 447.01 L 637.34 447.02 Z" fill="#804f59" fill-rule="nonzero" group-id="1,91" node-id="774" stroke="none" target-height="18.078247" target-width="35.793518" target-x="625.7851" target-y="445.33768"/><path d="M 795.34 367.70 L 807.68 367.70 C 807.59 357.02 807.53 346.33 807.51 335.65 C 807.47 329.52 805.29 323.19 805.66 318.51 L 797.54 318.58 C 797.46 320.54 796.36 322.02 796.48 324.05 C 796.89 330.38 796.29 348.27 795.34 367.70 Z" fill="#ffb63c" fill-rule="nonzero" group-id="1,92" node-id="779" stroke="none" target-height="49.18921" target-width="12.343872" target-x="795.3408" target-y="318.50998"/><path d="M 801.14 320.61 C 819.06 300.20 818.93 280.37 800.77 261.12 C 785.97 278.72 786.09 298.55 801.14 320.61 Z" fill="#39c988" fill-rule="nonzero" group-id="1,93" node-id="784" stroke="none" target-height="59.494385" target-width="33.0907" target-x="785.9666" target-y="261.11935"/><path d="M 801.08 268.70 C 801.51 282.81 801.42 301.01 801.15 320.61 C 803.91 291.34 803.88 274.03 801.08 268.70 Z" fill="#47a55d" fill-rule="nonzero" group-id="1,94" node-id="789" stroke="none" target-height="51.91681" target-width="2.8207397" target-x="801.0845" target-y="268.69748"/><path d="M 753.85 283.65 C 761.87 285.04 766.86 288.98 768.84 295.49 C 771.81 305.25 794.27 320.24 801.77 322.50 C 807.12 309.02 801.96 296.94 786.27 286.25 C 770.59 275.57 759.78 274.70 753.85 283.65 Z" fill="#49e4a3" fill-rule="nonzero" group-id="1,95" node-id="794" stroke="none" target-height="47.805237" target-width="53.272766" target-x="753.8501" target-y="274.69827"/><path d="M 761.16 282.85 C 774.21 289.74 786.18 301.86 797.30 318.08 C 788.70 296.70 776.65 284.95 761.16 282.85 Z" fill="#28af6e" fill-rule="nonzero" group-id="1,96" node-id="799" stroke="none" target-height="35.234894" target-width="36.13788" target-x="761.1577" target-y="282.8469"/><path d="M 801.94 325.72 C 767.88 314.03 746.15 314.81 736.74 328.05 C 739.41 305.05 751.78 294.24 773.86 295.64 C 795.93 297.03 805.29 307.06 801.94 325.72 Z" fill="#39c988" fill-rule="nonzero" group-id="1,97" node-id="804" stroke="none" target-height="33.810577" target-width="68.552185" target-x="736.74" target-y="294.2413"/><path d="M 740.30 320.61 C 760.42 306.05 780.60 307.88 800.79 320.11 C 780.66 300.67 760.50 300.84 740.30 320.61 Z" fill="#28af6e" fill-rule="nonzero" group-id="1,98" node-id="809" stroke="none" target-height="19.940033" target-width="60.49048" target-x="740.29614" target-y="300.67447"/><path d="M 803.10 323.70 C 802.94 330.10 798.75 335.58 790.53 340.14 C 778.20 347.00 763.58 357.96 763.58 366.18 C 756.42 338.32 760.76 321.87 776.60 316.85 C 792.43 311.83 801.26 314.11 803.10 323.70 Z" fill="#49e4a3" fill-rule="nonzero" group-id="1,99" node-id="814" stroke="none" target-height="54.355804" target-width="46.67267" target-x="756.4225" target-y="311.82645"/><path d="M 765.32 351.58 C 775.32 336.45 787.41 326.04 803.10 323.71 C 780.58 324.80 767.99 334.09 765.32 351.58 Z" fill="#39c988" fill-rule="nonzero" group-id="1,100" node-id="819" stroke="none" target-height="27.862091" target-width="37.776306" target-x="765.31885" target-y="323.71408"/><path d="M 850.12 283.97 C 842.11 285.37 837.11 289.32 835.14 295.82 C 832.18 305.58 809.71 320.58 802.21 322.84 C 796.86 309.36 802.02 297.28 817.71 286.59 C 833.39 275.90 844.20 275.02 850.12 283.97 Z" fill="#49e4a3" fill-rule="nonzero" group-id="1,101" node-id="824" stroke="none" target-height="47.814575" target-width="53.269653" target-x="796.8552" target-y="275.02448"/><path d="M 842.83 283.18 C 829.77 290.06 817.80 302.18 806.69 318.42 C 815.28 297.02 827.32 285.28 842.83 283.18 Z" fill="#28af6e" fill-rule="nonzero" group-id="1,102" node-id="829" stroke="none" target-height="35.234894" target-width="36.13794" target-x="806.6884" target-y="283.18185"/><path d="M 867.23 328.39 C 864.57 305.38 852.19 294.58 830.12 295.97 C 808.04 297.36 798.69 307.39 802.04 326.05 C 836.10 314.36 857.83 315.14 867.23 328.39 Z" fill="#39c988" fill-rule="nonzero" group-id="1,103" node-id="834" stroke="none" target-height="33.810608" target-width="68.54895" target-x="798.68585" target-y="294.57623"/><path d="M 863.68 320.95 C 843.55 306.37 823.39 308.21 803.20 320.45 C 823.32 301.00 843.48 301.17 863.68 320.95 Z" fill="#28af6e" fill-rule="nonzero" group-id="1,104" node-id="839" stroke="none" target-height="19.94629" target-width="60.48114" target-x="803.19775" target-y="301.003"/><path d="M 800.89 324.04 C 801.04 330.43 805.23 335.91 813.46 340.48 C 825.80 347.33 840.40 358.30 840.40 366.52 C 847.55 338.65 843.21 322.21 827.38 317.18 C 811.55 312.16 802.71 314.45 800.89 324.04 Z" fill="#49e4a3" fill-rule="nonzero" group-id="1,105" node-id="844" stroke="none" target-height="54.358917" target-width="46.66339" target-x="800.88916" target-y="312.1584"/><path d="M 838.66 351.91 C 828.66 336.78 816.57 326.37 800.89 324.05 C 823.40 325.14 835.99 334.42 838.66 351.91 Z" fill="#39c988" fill-rule="nonzero" group-id="1,106" node-id="849" stroke="none" target-height="27.86206" target-width="37.76703" target-x="800.88916" target-y="324.04904"/><path d="M 793.26 360.14 C 794.13 360.01 795.09 360.33 795.58 361.04 C 795.86 361.48 796.01 362.05 796.47 362.29 C 798.07 363.11 798.92 358.98 800.52 359.94 C 800.87 360.17 801.35 360.63 801.58 360.27 C 803.46 361.17 805.87 360.83 807.43 359.44 C 808.27 358.70 808.40 358.46 809.54 358.56 C 811.78 358.75 814.25 359.13 815.70 360.86 C 816.54 361.86 817.44 364.13 817.20 365.36 C 816.80 367.41 812.04 371.95 808.89 373.79 C 800.62 378.63 795.32 375.02 789.81 375.25 C 786.17 375.41 785.06 375.68 783.06 371.71 C 781.71 369.08 786.91 371.26 787.26 368.51 C 787.43 367.24 786.42 366.62 787.41 365.47 C 788.13 364.63 789.09 364.19 789.73 363.23 C 790.62 361.88 791.50 360.40 793.26 360.14 Z" fill="#804f59" fill-rule="nonzero" group-id="1,107" node-id="854" stroke="none" target-height="20.17276" target-width="35.72815" target-x="781.7124" target-y="358.45532"/><path d="M 215.40 386.09 L 227.75 386.09 C 227.65 375.41 227.59 364.73 227.56 354.04 C 227.53 347.92 225.35 341.59 225.72 336.91 L 217.60 336.98 C 217.53 338.93 216.43 340.42 216.53 342.44 C 216.94 348.77 216.34 366.67 215.40 386.09 Z" fill="#ffb63c" fill-rule="nonzero" group-id="1,108" node-id="859" stroke="none" target-height="49.18921" target-width="12.343903" target-x="215.40308" target-y="336.9055"/><path d="M 221.18 339.02 C 239.11 318.60 238.99 298.77 220.82 279.51 C 206.02 297.12 206.14 316.95 221.19 339.02 L 221.18 339.02 Z" fill="#39c988" fill-rule="nonzero" group-id="1,109" node-id="864" stroke="none" target-height="59.503693" target-width="33.0876" target-x="206.01947" target-y="279.51486"/><path d="M 221.15 287.09 C 221.57 301.20 221.47 319.41 221.20 339.02 C 223.96 309.74 223.94 292.43 221.15 287.10 L 221.15 287.09 Z" fill="#47a55d" fill-rule="nonzero" group-id="1,110" node-id="869" stroke="none" target-height="51.926086" target-width="2.8113403" target-x="221.14673" target-y="287.092"/><path d="M 173.91 302.03 C 181.93 303.43 186.93 307.38 188.90 313.89 C 191.86 323.65 214.32 338.64 221.83 340.90 C 227.18 327.43 222.01 315.34 206.33 304.65 C 190.64 293.96 179.84 293.09 173.91 302.04 L 173.91 302.03 Z" fill="#49e4a3" fill-rule="nonzero" group-id="1,111" node-id="874" stroke="none" target-height="47.805237" target-width="53.26349" target-x="173.91248" target-y="293.09378"/><path d="M 181.21 301.24 C 194.27 308.13 206.23 320.25 217.35 336.49 C 208.76 315.09 196.71 303.35 181.21 301.24 Z" fill="#28af6e" fill-rule="nonzero" group-id="1,112" node-id="879" stroke="none" target-height="35.2442" target-width="36.137894" target-x="181.21082" target-y="301.2424"/><path d="M 221.99 344.12 C 187.93 332.43 166.20 333.20 156.79 346.45 C 159.46 323.45 171.84 312.64 193.92 314.03 C 215.99 315.43 225.35 325.46 221.99 344.12 Z" fill="#39c988" fill-rule="nonzero" group-id="1,113" node-id="884" stroke="none" target-height="33.804413" target-width="68.55838" target-x="156.79297" target-y="312.64297"/><path d="M 160.35 339.02 C 180.48 324.44 200.66 326.27 220.84 338.51 C 200.71 319.07 180.55 319.24 160.35 339.02 Z" fill="#28af6e" fill-rule="nonzero" group-id="1,114" node-id="889" stroke="none" target-height="19.94934" target-width="60.490494" target-x="160.34912" target-y="319.06866"/><path d="M 223.15 342.11 C 223.00 348.50 218.81 353.98 210.58 358.55 C 198.24 365.40 183.64 376.36 183.64 384.58 C 176.48 356.71 180.82 340.27 196.65 335.25 C 212.49 330.23 221.32 332.51 223.15 342.10 L 223.15 342.11 Z" fill="#49e4a3" fill-rule="nonzero" group-id="1,115" node-id="894" stroke="none" target-height="54.34964" target-width="46.66336" target-x="176.48486" target-y="330.22784"/><path d="M 185.38 369.97 C 195.38 354.86 207.46 344.44 223.14 342.11 C 200.62 343.20 188.03 352.49 185.37 369.97 L 185.38 369.97 Z" fill="#39c988" fill-rule="nonzero" group-id="1,116" node-id="899" stroke="none" target-height="27.862091" target-width="37.766983" target-x="185.37195" target-y="342.1086"/><path d="M 270.19 302.37 C 262.17 303.76 257.17 307.72 255.20 314.22 C 252.23 323.98 229.77 338.97 222.26 341.23 C 216.91 327.75 222.08 315.67 237.76 304.98 C 253.45 294.30 264.26 293.43 270.19 302.38 L 270.19 302.37 Z" fill="#49e4a3" fill-rule="nonzero" group-id="1,117" node-id="904" stroke="none" target-height="47.805237" target-width="53.272797" target-x="216.91418" target-y="293.42874"/><path d="M 262.88 301.58 C 249.83 308.47 237.86 320.58 226.74 336.81 C 235.34 315.43 247.38 303.68 262.88 301.58 Z" fill="#28af6e" fill-rule="nonzero" group-id="1,118" node-id="909" stroke="none" target-height="35.234894" target-width="36.13791" target-x="226.74146" target-y="301.57736"/><path d="M 287.30 346.78 C 284.63 323.78 272.26 312.97 250.18 314.37 C 228.11 315.76 218.74 325.79 222.10 344.44 C 256.16 332.75 277.89 333.53 287.30 346.78 Z" fill="#39c988" fill-rule="nonzero" group-id="1,119" node-id="914" stroke="none" target-height="33.810608" target-width="68.55214" target-x="218.74498" target-y="312.97174"/><path d="M 283.74 339.34 C 263.61 324.78 243.44 326.61 223.25 338.84 C 243.38 319.40 263.54 319.57 283.74 339.34 Z" fill="#28af6e" fill-rule="nonzero" group-id="1,120" node-id="919" stroke="none" target-height="19.940033" target-width="60.49051" target-x="223.25061" target-y="319.40396"/><path d="M 220.94 342.43 C 221.10 348.83 225.29 354.31 233.51 358.87 C 245.83 365.73 260.45 376.69 260.45 384.91 C 267.61 357.05 263.27 340.60 247.44 335.57 C 231.60 330.55 222.77 332.83 220.94 342.43 Z" fill="#49e4a3" fill-rule="nonzero" group-id="1,121" node-id="924" stroke="none" target-height="54.365112" target-width="46.6696" target-x="220.94188" target-y="330.54703"/><path d="M 258.72 370.31 C 248.72 355.18 236.63 344.76 220.94 342.44 C 243.46 343.53 256.05 352.82 258.72 370.31 Z" fill="#39c988" fill-rule="nonzero" group-id="1,122" node-id="929" stroke="none" target-height="27.862122" target-width="37.77632" target-x="220.94188" target-y="342.44357"/><path d="M 213.33 378.54 C 214.19 378.41 215.15 378.72 215.64 379.45 C 215.92 379.88 216.07 380.44 216.53 380.69 C 218.12 381.51 218.98 377.37 220.57 378.35 C 220.93 378.56 221.41 379.03 221.63 378.68 C 223.52 379.57 225.93 379.23 227.50 377.84 C 228.33 377.09 228.46 376.86 229.60 376.95 C 231.83 377.15 234.30 377.54 235.75 379.26 C 236.60 380.26 237.49 382.54 237.25 383.76 C 236.85 385.81 232.09 390.35 228.95 392.19 C 220.67 397.03 215.38 393.41 209.86 393.64 C 206.23 393.80 205.13 394.07 203.12 390.11 C 201.77 387.47 206.96 389.66 207.32 386.90 C 207.48 385.64 206.48 385.01 207.46 383.87 C 208.19 383.03 209.14 382.59 209.79 381.63 C 210.68 380.28 211.56 378.80 213.33 378.54 Z" fill="#804f59" fill-rule="nonzero" group-id="1,123" node-id="934" stroke="none" target-height="20.172852" target-width="35.71898" target-x="201.77461" target-y="376.86017"/><path d="M 371.34 299.21 L 383.67 299.21 C 383.58 288.53 383.51 277.85 383.49 267.16 C 383.46 261.05 381.28 254.71 381.64 250.02 L 373.53 250.10 C 373.45 252.05 372.35 253.54 372.47 255.56 C 372.88 261.89 372.28 279.78 371.33 299.22 L 371.34 299.21 Z" fill="#ffb63c" fill-rule="nonzero" group-id="1,124" node-id="939" stroke="none" target-height="49.198486" target-width="12.343933" target-x="371.33032" target-y="250.02365"/><path d="M 377.12 252.14 C 395.04 231.72 394.92 211.88 376.75 192.63 C 361.95 210.23 362.08 230.07 377.12 252.14 Z" fill="#39c988" fill-rule="nonzero" group-id="1,125" node-id="944" stroke="none" target-height="59.503708" target-width="33.09073" target-x="361.95297" target-y="192.63301"/><path d="M 377.07 200.22 C 377.50 214.32 377.41 232.52 377.13 252.14 C 379.89 222.86 379.87 205.55 377.07 200.22 Z" fill="#47a55d" fill-rule="nonzero" group-id="1,126" node-id="949" stroke="none" target-height="51.916794" target-width="2.817505" target-x="377.074" target-y="200.21994"/><path d="M 329.84 215.16 C 337.86 216.55 342.85 220.50 344.83 227.01 C 347.80 236.77 370.26 251.76 377.76 254.03 C 383.11 240.55 377.95 228.46 362.26 217.77 C 346.57 207.08 335.77 206.21 329.84 215.16 Z" fill="#49e4a3" fill-rule="nonzero" group-id="1,127" node-id="954" stroke="none" target-height="47.81465" target-width="53.272858" target-x="329.83972" target-y="206.21193"/><path d="M 337.15 214.37 C 350.20 221.25 362.17 233.36 373.29 249.60 C 364.69 228.21 352.64 216.47 337.15 214.37 Z" fill="#28af6e" fill-rule="nonzero" group-id="1,128" node-id="959" stroke="none" target-height="35.234863" target-width="36.13791" target-x="337.14734" target-y="214.36937"/><path d="M 377.93 257.24 C 343.87 245.55 322.13 246.32 312.72 259.57 C 315.40 236.57 327.77 225.76 349.85 227.15 C 371.92 228.54 381.28 238.57 377.93 257.24 Z" fill="#39c988" fill-rule="nonzero" group-id="1,129" node-id="964" stroke="none" target-height="33.80443" target-width="68.56149" target-x="312.72034" target-y="225.76112"/><path d="M 316.29 252.14 C 336.41 237.56 356.58 239.39 376.78 251.62 C 356.65 232.19 336.49 232.36 316.29 252.14 Z" fill="#28af6e" fill-rule="nonzero" group-id="1,130" node-id="969" stroke="none" target-height="19.949371" target-width="60.49054" target-x="316.28564" target-y="232.18689"/><path d="M 379.08 255.22 C 378.93 261.61 374.74 267.09 366.52 271.67 C 354.18 278.52 339.57 289.47 339.57 297.70 C 332.41 269.84 336.75 253.39 352.59 248.37 C 368.43 243.34 377.26 245.62 379.08 255.22 Z" fill="#49e4a3" fill-rule="nonzero" group-id="1,131" node-id="974" stroke="none" target-height="54.365097" target-width="46.672638" target-x="332.4122" target-y="243.33916"/><path d="M 341.31 283.09 C 351.31 267.97 363.40 257.55 379.08 255.23 C 356.57 256.32 343.98 265.61 341.31 283.09 Z" fill="#39c988" fill-rule="nonzero" group-id="1,132" node-id="979" stroke="none" target-height="27.862091" target-width="37.776276" target-x="341.30847" target-y="255.22678"/><path d="M 426.11 215.49 C 418.10 216.88 413.10 220.83 411.13 227.34 C 408.17 237.10 385.70 252.09 378.20 254.35 C 372.84 240.88 378.01 228.80 393.70 218.10 C 409.39 207.41 420.19 206.54 426.11 215.50 L 426.11 215.49 Z" fill="#49e4a3" fill-rule="nonzero" group-id="1,133" node-id="984" stroke="none" target-height="47.81154" target-width="53.269684" target-x="372.8446" target-y="206.54042"/><path d="M 418.82 214.70 C 405.76 221.58 393.79 233.70 382.68 249.93 C 391.27 228.54 403.31 216.80 418.82 214.70 Z" fill="#28af6e" fill-rule="nonzero" group-id="1,134" node-id="989" stroke="none" target-height="35.234894" target-width="36.13791" target-x="382.6781" target-y="214.69553"/><path d="M 443.23 259.91 C 440.57 236.90 428.19 226.09 406.11 227.49 C 384.03 228.88 374.68 238.91 378.03 257.57 C 412.09 245.88 433.82 246.66 443.23 259.91 Z" fill="#39c988" fill-rule="nonzero" group-id="1,135" node-id="994" stroke="none" target-height="33.81993" target-width="68.55841" target-x="374.67532" target-y="226.08989"/><path d="M 439.67 252.46 C 419.54 237.89 399.37 239.73 379.19 251.96 C 399.31 232.52 419.47 232.69 439.67 252.46 Z" fill="#28af6e" fill-rule="nonzero" group-id="1,136" node-id="999" stroke="none" target-height="19.940033" target-width="60.4812" target-x="379.18726" target-y="232.52216"/><path d="M 376.88 255.55 C 377.03 261.94 381.22 267.42 389.45 271.99 C 401.79 278.84 416.39 289.81 416.39 298.03 C 423.54 270.16 419.20 253.72 403.37 248.70 C 387.53 243.67 378.70 245.96 376.88 255.55 Z" fill="#49e4a3" fill-rule="nonzero" group-id="1,137" node-id="1004" stroke="none" target-height="54.35582" target-width="46.66333" target-x="376.87854" target-y="243.67409"/><path d="M 414.65 283.42 C 404.65 268.30 392.56 257.89 376.88 255.56 C 399.39 256.65 411.98 265.94 414.65 283.42 Z" fill="#39c988" fill-rule="nonzero" group-id="1,138" node-id="1009" stroke="none" target-height="27.862091" target-width="37.767" target-x="376.87854" target-y="255.56271"/><path d="M 369.25 291.65 C 370.12 291.52 371.08 291.84 371.57 292.57 C 371.85 292.99 372.00 293.56 372.46 293.80 C 374.06 294.63 374.91 290.50 376.51 291.47 C 376.86 291.68 377.34 292.15 377.57 291.79 C 379.45 292.70 381.86 292.35 383.42 290.96 C 384.26 290.21 384.39 289.98 385.53 290.07 C 389.56 290.43 391.76 291.25 392.93 294.80 C 393.50 296.55 393.29 297.29 392.23 298.65 C 390.23 301.32 387.73 303.58 384.88 305.31 C 376.61 310.15 371.31 306.53 365.79 306.77 C 362.16 306.92 361.06 307.19 359.04 303.23 C 357.70 300.59 362.89 302.79 363.25 300.03 C 363.42 298.77 362.41 298.14 363.40 296.99 C 364.12 296.15 365.07 295.71 365.72 294.75 C 366.61 293.40 367.49 291.91 369.25 291.65 Z" fill="#804f59" fill-rule="nonzero" group-id="1,139" node-id="1014" stroke="none" target-height="20.172852" target-width="35.793488" target-x="357.70187" target-y="289.97833"/><path d="M 527.27 212.34 L 539.61 212.34 C 539.51 201.66 539.45 190.97 539.42 180.29 C 539.40 174.16 537.21 167.83 537.58 163.14 L 529.46 163.22 C 529.39 165.17 528.29 166.66 528.39 168.68 C 528.80 175.01 528.21 192.90 527.27 212.34 Z" fill="#ffb63c" fill-rule="nonzero" group-id="1,140" node-id="1019" stroke="none" target-height="49.198517" target-width="12.343872" target-x="527.26685" target-y="163.14182"/><path d="M 533.06 165.25 C 550.97 144.84 550.85 125.00 532.68 105.76 C 517.88 123.36 518.01 143.19 533.06 165.25 Z" fill="#39c988" fill-rule="nonzero" group-id="1,141" node-id="1024" stroke="none" target-height="59.4944" target-width="33.0907" target-x="517.88336" target-y="105.75998"/><path d="M 533.01 113.34 C 533.43 127.44 533.34 145.64 533.07 165.25 C 535.82 135.98 535.80 118.68 533.01 113.34 Z" fill="#47a55d" fill-rule="nonzero" group-id="1,142" node-id="1029" stroke="none" target-height="51.916794" target-width="2.8113403" target-x="533.0106" target-y="113.338104"/><path d="M 485.78 128.28 C 493.79 129.68 498.79 133.63 500.76 140.13 C 503.72 149.89 526.19 164.87 533.69 167.14 C 539.04 153.67 533.87 141.58 518.19 130.90 C 502.51 120.21 491.70 119.34 485.78 128.28 Z" fill="#49e4a3" fill-rule="nonzero" group-id="1,143" node-id="1034" stroke="none" target-height="47.80841" target-width="53.26346" target-x="485.7764" target-y="119.33658"/><path d="M 493.07 127.49 C 506.14 134.37 518.10 146.49 529.21 162.72 C 520.62 141.33 508.58 129.59 493.07 127.49 Z" fill="#28af6e" fill-rule="nonzero" group-id="1,144" node-id="1039" stroke="none" target-height="35.234894" target-width="36.13788" target-x="493.0746" target-y="127.48752"/><path d="M 533.86 170.36 C 499.80 158.67 478.07 159.45 468.66 172.68 C 471.33 149.68 483.70 138.88 505.78 140.28 C 527.86 141.67 537.22 151.69 533.86 170.36 Z" fill="#39c988" fill-rule="nonzero" group-id="1,145" node-id="1044" stroke="none" target-height="33.801254" target-width="68.55841" target-x="468.65686" target-y="138.88194"/><path d="M 472.21 165.25 C 492.35 150.68 512.52 152.51 532.70 164.75 C 512.58 145.31 492.41 145.48 472.21 165.25 Z" fill="#28af6e" fill-rule="nonzero" group-id="1,146" node-id="1049" stroke="none" target-height="19.946304" target-width="60.49048" target-x="472.2129" target-y="145.30865"/><path d="M 535.01 168.35 C 534.86 174.74 530.67 180.22 522.44 184.79 C 510.10 191.64 495.50 202.60 495.50 210.82 C 488.35 182.96 492.69 166.51 508.52 161.48 C 524.36 156.46 533.19 158.75 535.01 168.35 Z" fill="#49e4a3" fill-rule="nonzero" group-id="1,147" node-id="1054" stroke="none" target-height="54.358902" target-width="46.66333" target-x="488.34875" target-y="156.46407"/><path d="M 497.25 196.22 C 507.24 181.09 519.33 170.67 535.01 168.35 C 512.50 169.44 499.91 178.73 497.25 196.22 Z" fill="#39c988" fill-rule="nonzero" group-id="1,148" node-id="1059" stroke="none" target-height="27.862106" target-width="37.76703" target-x="497.24512" target-y="168.3547"/><path d="M 582.05 128.61 C 574.03 130.00 569.04 133.95 567.06 140.46 C 564.09 150.22 541.63 165.21 534.13 167.47 C 528.78 154.00 533.94 141.91 549.63 131.22 C 565.32 120.53 576.12 119.67 582.05 128.61 Z" fill="#49e4a3" fill-rule="nonzero" group-id="1,149" node-id="1064" stroke="none" target-height="47.805252" target-width="53.272766" target-x="528.7781" target-y="119.665054"/><path d="M 574.74 127.81 C 561.69 134.70 549.72 146.82 538.61 163.06 C 547.20 141.67 559.25 129.92 574.74 127.81 Z" fill="#28af6e" fill-rule="nonzero" group-id="1,150" node-id="1069" stroke="none" target-height="35.2442" target-width="36.13788" target-x="538.60547" target-y="127.81369"/><path d="M 599.16 173.03 C 596.49 150.02 584.12 139.21 562.05 140.60 C 539.97 141.99 530.61 152.02 533.96 170.69 C 568.02 159.00 589.75 159.78 599.16 173.03 Z" fill="#39c988" fill-rule="nonzero" group-id="1,151" node-id="1074" stroke="none" target-height="33.813736" target-width="68.552185" target-x="530.6088" target-y="139.21423"/><path d="M 595.60 165.59 C 575.47 151.01 555.31 152.85 535.11 165.08 C 555.24 145.64 575.40 145.81 595.60 165.59 Z" fill="#28af6e" fill-rule="nonzero" group-id="1,152" node-id="1079" stroke="none" target-height="19.949387" target-width="60.48108" target-x="535.1145" target-y="145.64098"/><path d="M 532.81 168.68 C 532.96 175.07 537.15 180.55 545.37 185.12 C 557.70 191.97 572.31 202.93 572.31 211.15 C 579.48 183.28 575.14 166.84 559.30 161.82 C 543.47 156.79 534.64 159.08 532.81 168.67 L 532.81 168.68 Z" fill="#49e4a3" fill-rule="nonzero" group-id="1,153" node-id="1084" stroke="none" target-height="54.355804" target-width="46.669556" target-x="532.8059" target-y="156.79324"/><path d="M 570.58 196.54 C 560.58 181.42 548.49 171.01 532.81 168.68 C 555.32 169.77 567.91 179.06 570.58 196.54 Z" fill="#39c988" fill-rule="nonzero" group-id="1,154" node-id="1089" stroke="none" target-height="27.862091" target-width="37.776306" target-x="532.8058" target-y="168.68088"/><path d="M 525.19 204.77 C 526.06 204.65 527.02 204.96 527.50 205.68 C 527.79 206.11 527.94 206.69 528.39 206.92 C 529.99 207.75 530.84 203.62 532.43 204.60 C 532.80 204.81 533.27 205.27 533.49 204.91 C 535.38 205.81 537.80 205.47 539.36 204.07 C 540.20 203.33 540.33 203.10 541.46 203.20 C 545.48 203.54 547.70 204.38 548.85 207.92 C 549.43 209.67 549.23 210.40 548.17 211.77 C 542.92 218.57 536.67 221.17 531.31 220.99 C 528.09 220.88 524.94 219.75 521.72 219.89 C 518.09 220.04 516.99 220.31 514.98 216.35 C 513.64 213.72 518.82 215.90 519.19 213.15 C 519.34 211.88 518.34 211.26 519.33 210.11 C 520.05 209.27 521.00 208.83 521.65 207.87 C 522.55 206.52 523.42 205.03 525.19 204.77 Z" fill="#804f59" fill-rule="nonzero" group-id="1,155" node-id="1094" stroke="none" target-height="18.078232" target-width="35.793518" target-x="513.63837" target-y="203.09647"/></g></g></svg>