<svg t="1771155785005" class="icon" viewBox="0 0 1024 1024" version="1.1" xmlns="http://www.w3.org/2000/svg" p-id="6554" width="200" height="200"><path d="M992.402286 334.957714c-3.181714-135.460571-119.661714-161.28-119.661715-161.28s-90.953143-0.731429-209.225142-1.316571l85.796571-84.041143s13.824-17.188571-9.581714-36.571429c-23.405714-19.346286-24.649143-10.715429-32.548572-5.339428-7.168 4.864-110.043429 107.227429-128.402285 125.549714-56.758857-0.219429-116.004571-0.365714-172.178286-0.402286h46.189714S329.398857 48.566857 321.536 43.154286c-7.862857-5.376-9.142857-13.970286-32.548571 5.376-23.405714 19.382857-9.545143 36.571429-9.545143 36.571428l88.246857 86.454857h4.900571c-97.901714 0.073143-182.272 0.621714-221.001143 2.157715-124.416 35.437714-114.834286 161.206857-114.834285 161.206857S38.326857 604.16 36.571429 740.461714c13.385143 136.228571 117.430857 157.988571 117.430857 157.988572s41.508571 0.804571 71.789714 0.804571c3.218286 8.850286 5.595429 51.602286 52.662857 51.602286s52.662857-51.602286 52.662857-51.602286 344.576-1.609143 373.321143-1.609143c1.609143 14.482286 8.777143 54.016 55.844572 53.174857 47.067429-0.768 50.249143-56.429714 50.249142-56.429714s15.945143-1.609143 63.817143 0c111.689143-20.955429 118.052571-153.161143 118.052572-153.161143s-1.572571-270.884571 0-406.308571z m-96.073143 431.030857c0 21.357714-16.749714 38.692571-37.412572 38.692572H179.638857c-20.662857 0-37.412571-17.334857-37.412571-38.692572V311.296c0-21.357714 16.749714-38.692571 37.412571-38.692571h679.277714c20.662857 0 37.412571 17.334857 37.412572 38.692571v454.692571z" fill="#03A5DD" p-id="6555"></path><path d="M213.76 444.123429l199.424-38.326858 15.177143 75.117715-197.851429 38.326857-16.749714-75.117714zM834.377143 444.123429l-199.424-38.326858-15.177143 75.117715 197.851429 38.326857 16.749714-75.117714zM428.361143 630.308571s43.885714 79.104 92.525714-25.563428c47.030857 102.290286 98.889143 27.099429 98.889143 27.099428l29.513143 19.236572s-55.04 88.685714-127.634286 21.577143c-61.44 67.108571-126.025143-21.394286-126.025143-21.394286l32.694857-20.955429z" fill="#03A5DD" p-id="6556"></path></svg>